0
SECTION
2
HEADER
9
$INSUNITS
70
4
9
$ACADVER
1
AC1014
9
$HANDSEED
5
FFFF
0
ENDSEC
0
SECTION
2
TABLES
0
TABLE
2
VPORT
5
8
100
AcDbSymbolTable
0
ENDTAB
0
TABLE
2
LTYPE
5
5
100
AcDbSymbolTable
0
LTYPE
5
14
100
AcDbSymbolTableRecord
100
AcDbLinetypeTableRecord
2
BYBLOCK
70
0
0
LTYPE
5
15
100
AcDbSymbolTableRecord
100
AcDbLinetypeTableRecord
2
BYLAYER
70
0
0
ENDTAB
0
TABLE
2
LAYER
5
2
100
AcDbSymbolTable
70
2
0
LAYER
5
50
100
AcDbSymbolTableRecord
100
AcDbLayerTableRecord
2
0
70
0
6
CONTINUOUS
0
ENDTAB
0
TABLE
2
STYLE
5
3
100
AcDbSymbolTable
70
1
0
STYLE
5
11
100
AcDbSymbolTableRecord
100
AcDbTextStyleTableRecord
2
STANDARD
70
0
0
ENDTAB
0
TABLE
2
VIEW
5
6
100
AcDbSymbolTable
70
0
0
ENDTAB
0
TABLE
2
UCS
5
7
100
AcDbSymbolTable
70
0
0
ENDTAB
0
TABLE
2
APPID
5
9
100
AcDbSymbolTable
70
2
0
APPID
5
12
100
AcDbSymbolTableRecord
100
AcDbRegAppTableRecord
2
ACAD
70
0
0
ENDTAB
0
TABLE
2
DIMSTYLE
5
A
100
AcDbSymbolTable
70
1
0
ENDTAB
0
TABLE
2
BLOCK_RECORD
5
1
100
AcDbSymbolTable
70
1
0
BLOCK_RECORD
5
1F
100
AcDbSymbolTableRecord
100
AcDbBlockTableRecord
2
*MODEL_SPACE
0
BLOCK_RECORD
5
1B
100
AcDbSymbolTableRecord
100
AcDbBlockTableRecord
2
*PAPER_SPACE
0
ENDTAB
0
ENDSEC
0
SECTION
2
BLOCKS
0
BLOCK
5
20
100
AcDbEntity
100
AcDbBlockBegin
2
*MODEL_SPACE
0
ENDBLK
5
21
100
AcDbEntity
100
AcDbBlockEnd
0
BLOCK
5
1C
100
AcDbEntity
100
AcDbBlockBegin
2
*PAPER_SPACE
0
ENDBLK
5
1D
100
AcDbEntity
100
AcDbBlockEnd
0
ENDSEC
0
SECTION
2
ENTITIES
0
CIRCLE
5
100
100
AcDbEntity
8
0
100
AcDbCircle
10
65
20
18.299999999999997
30
0
40
1.25
210
0
220
-0
230
1
0
CIRCLE
5
101
100
AcDbEntity
8
0
100
AcDbCircle
10
65
20
18.299999999999997
30
0
40
2.5
210
0
220
0
230
1
0
LWPOLYLINE
5
102
100
AcDbEntity
8
0
100
AcDbPolyline
90
8
70
1
43
0.0
10
108.00000160932541
20
55.400000834465033
10
32.400000506639479
20
55.400000834465033
10
32.400000506639479
20
85.10000124422973
10
104.00000160932541
20
85.10000124422973
10
104.00000160932541
20
83.000000000000242
10
105.98000000000025
20
83.000000000000242
10
105.98000000000025
20
57.299999999999997
10
108.00000160932541
20
57.300000000000011
0
CIRCLE
5
103
100
AcDbEntity
8
0
100
AcDbCircle
10
5.0800000000000001
20
53.339999999999996
30
0
40
5
210
0
220
0
230
1
0
CIRCLE
5
104
100
AcDbEntity
8
0
100
AcDbCircle
10
46.743846953897894
20
15.324231927140925
30
0
40
1.25
210
0
220
-0
230
1
0
CIRCLE
5
105
100
AcDbEntity
8
0
100
AcDbCircle
10
87.630000000000024
20
48.229999999999997
30
0
40
3.25
210
0
220
0
230
1
0
CIRCLE
5
106
100
AcDbEntity
8
0
100
AcDbCircle
10
69.850000000000009
20
48.230000000000004
30
0
40
3.25
210
0
220
0
230
1
0
CIRCLE
5
107
100
AcDbEntity
8
0
100
AcDbCircle
10
5.0800000000000001
20
53.339999999999996
30
0
40
3.7499999999999973
210
0
220
-0
230
1
0
CIRCLE
5
108
100
AcDbEntity
8
0
100
AcDbCircle
10
46.743846953897894
20
15.324231927140925
30
0
40
2.4999999999999996
210
0
220
0
230
1
0
CIRCLE
5
109
100
AcDbEntity
8
0
100
AcDbCircle
10
22.838850692825599
20
43.190654064031776
30
0
40
3.9999999999999991
210
0
220
0
230
1
0
CIRCLE
5
110
100
AcDbEntity
8
0
100
AcDbCircle
10
22.859999999999999
20
29.210000000000001
30
0
40
3.9999999999999991
210
0
220
0
230
1
0
CIRCLE
5
111
100
AcDbEntity
8
0
100
AcDbCircle
10
87.630000000000024
20
48.229999999999997
30
0
40
4.5000000000000018
210
0
220
0
230
1
0
CIRCLE
5
112
100
AcDbEntity
8
0
100
AcDbCircle
10
69.850000000000009
20
48.230000000000004
30
0
40
4.5
210
0
220
0
230
1
0
CIRCLE
5
113
100
AcDbEntity
8
0
100
AcDbCircle
10
65
20
27.300000000000001
30
0
40
2.5
210
0
220
0
230
1
0
CIRCLE
5
114
100
AcDbEntity
8
0
100
AcDbCircle
10
52.070000000000007
20
48.230000000000004
30
0
40
4.5000000000000018
210
0
220
0
230
1
0
CIRCLE
5
115
100
AcDbEntity
8
0
100
AcDbCircle
10
65
20
27.300000000000001
30
0
40
1.25
210
0
220
-0
230
1
0
CIRCLE
5
116
100
AcDbEntity
8
0
100
AcDbCircle
10
46.804511571013578
20
31.194646451974137
30
0
40
1.249999999999996
210
0
220
-0
230
1
0
CIRCLE
5
117
100
AcDbEntity
8
0
100
AcDbCircle
10
22.879318672449983
20
71.11462530468944
30
0
40
2.5
210
0
220
-0
230
1
0
CIRCLE
5
118
100
AcDbEntity
8
0
100
AcDbCircle
10
22.879318672449983
20
71.11462530468944
30
0
40
4.0000000000000027
210
0
220
0
230
1
0
LINE
5
119
100
AcDbEntity
8
0
100
AcDbLine
10
34.380000000000003
20
57.300000000000033
30
0
11
34.380000000000003
21
83.000000000000242
31
0
0
CIRCLE
5
120
100
AcDbEntity
8
0
100
AcDbCircle
10
46.804511571013578
20
31.194646451974137
30
0
40
2.5
210
0
220
0
230
1
0
CIRCLE
5
121
100
AcDbEntity
8
0
100
AcDbCircle
10
22.806338249288238
20
57.170843910001466
30
0
40
3.9999999999999991
210
0
220
0
230
1
0
CIRCLE
5
122
100
AcDbEntity
8
0
100
AcDbCircle
10
52.070000000000007
20
48.230000000000004
30
0
40
3.0000000000000004
210
0
220
0
230
1
0
CIRCLE
5
123
100
AcDbEntity
8
0
100
AcDbCircle
10
22.838850692825599
20
43.190654064031776
30
0
40
2.5000000000000027
210
0
220
-0
230
1
0
CIRCLE
5
124
100
AcDbEntity
8
0
100
AcDbCircle
10
22.859999999999999
20
29.210000000000001
30
0
40
2.4999999999999991
210
0
220
-0
230
1
0
CIRCLE
5
125
100
AcDbEntity
8
0
100
AcDbCircle
10
22.806338249288238
20
57.170843910001466
30
0
40
2.5000000000000004
210
0
220
-0
230
1
0
LINE
5
126
100
AcDbEntity
8
0
100
AcDbLine
10
34.380000000000003
20
57.300000000000033
30
0
11
105.98000000000025
21
57.299999999999997
31
0
0
LINE
5
127
100
AcDbEntity
8
0
100
AcDbLine
10
34.380000000000003
20
83.000000000000242
30
0
11
104.00000160932541
21
83.000000000000242
31
0
0
LINE
5
128
100
AcDbEntity
8
0
100
AcDbLine
10
116.20000000000002
20
94.000001400709152
30
0
11
-3.0000000447034836
21
94.000001400709152
31
0
0
LINE
5
129
100
AcDbEntity
8
0
100
AcDbLine
10
-3.0000000447034836
20
94.000001400709152
30
0
11
-7.0000001043081284
21
94.000001400709152
31
0
0
LINE
5
130
100
AcDbEntity
8
0
100
AcDbLine
10
-7.0000001043081284
20
94.000001400709152
30
0
11
-7.0000001043081284
21
-4.0000000596046448
31
0
0
LINE
5
131
100
AcDbEntity
8
0
100
AcDbLine
10
-7.0000001043081284
20
-4.0000000596046448
30
0
11
-3.0000000447034836
21
-4.0000000596046448
31
0
0
LINE
5
132
100
AcDbEntity
8
0
100
AcDbLine
10
-3.0000000447034836
20
-4.0000000596046448
30
0
11
116.20000000000002
21
-4.0000000596046448
31
0
0
LINE
5
133
100
AcDbEntity
8
0
100
AcDbLine
10
116.20000000000002
20
-4.0000000596046448
30
0
11
116.20000000000002
21
94.000001400709152
31
0
0
LINE
5
134
100
AcDbEntity
8
0
100
AcDbLine
10
95.000001415610313
20
94.000001400709152
30
0
11
95.000001415610313
21
85.10000124422973
31
0
0
LINE
5
135
100
AcDbEntity
8
0
100
AcDbLine
10
95.000001415610313
20
55.400000834465033
30
0
11
95.000001415610313
21
-4.0000000596046448
31
0
0
LINE
5
136
100
AcDbEntity
8
0
100
AcDbLine
10
93.091756893559165
20
94.000001400709152
30
0
11
93.091756893559165
21
85.10000124422973
31
0
0
LINE
5
137
100
AcDbEntity
8
0
100
AcDbLine
10
93.091756893559165
20
55.400000834465033
30
0
11
93.091756893559165
21
-4.0000000596046448
31
0
0
LINE
5
138
100
AcDbEntity
8
0
100
AcDbLine
10
67.000000998372158
20
34.846873064594369
30
0
11
67.0000009983778
21
28.799998668828675
31
0
0
LINE
5
139
100
AcDbEntity
8
0
100
AcDbLine
10
67.0000009983778
20
25.800001331171323
30
0
11
67.0000009983778
21
19.799998668828675
31
0
0
LINE
5
140
100
AcDbEntity
8
0
100
AcDbLine
10
67.0000009983778
20
16.800001331171323
30
0
11
67.0000009983778
21
-4.0000000596046448
31
0
0
LINE
5
141
100
AcDbEntity
8
0
100
AcDbLine
10
67.000000998372158
20
34.846873064594369
30
0
11
67.000000998372172
21
44.747543153071341
31
0
0
LINE
5
142
100
AcDbEntity
8
0
100
AcDbLine
10
67.000000998372172
20
51.712456846928667
30
0
11
67.000000998372172
21
55.400000834465033
31
0
0
LINE
5
143
100
AcDbEntity
8
0
100
AcDbLine
10
69.000001028180122
20
-4.0000000596046448
30
0
11
69.000001028180122
21
43.811006704247546
31
0
0
LINE
5
144
100
AcDbEntity
8
0
100
AcDbLine
10
69.000001028180122
20
52.648993295752462
30
0
11
69.000001028180122
21
55.400000834465033
31
0
0
LINE
5
145
100
AcDbEntity
8
0
100
AcDbLine
10
45.000000670552254
20
0
30
0
11
45.000000670552254
21
13.532863695854683
31
0
0
LINE
5
146
100
AcDbEntity
8
0
100
AcDbLine
10
44.980325928955537
20
17.096234634414877
30
0
11
44.980325928955537
21
29.485159176996845
31
0
0
LINE
5
147
100
AcDbEntity
8
0
100
AcDbLine
10
44.980325928955537
20
32.904133726951429
30
0
11
44.980325928955537
21
55.400000834465033
31
0
0
LINE
5
148
100
AcDbEntity
8
0
100
AcDbLine
10
47.000000700354576
20
55.400000834465033
30
0
11
47.000000700354576
21
33.686991532477535
31
0
0
LINE
5
149
100
AcDbEntity
8
0
100
AcDbLine
10
47.000000700354576
20
28.702301371470735
30
0
11
47.000000700354576
21
17.81107435443225
31
0
0
LINE
5
150
100
AcDbEntity
8
0
100
AcDbLine
10
46.743846953897894
20
12.824231927140925
30
0
11
46.743846953897894
21
-4.0000000596046448
31
0
0
LINE
5
151
100
AcDbEntity
8
0
100
AcDbLine
10
45.000000670552254
20
0
30
0
11
45.000000670552254
21
-4.0000000596046448
31
0
0
LINE
5
152
100
AcDbEntity
8
0
100
AcDbLine
10
18.000000268220901
20
94.000001400709152
30
0
11
18.000000268220901
21
-4.0000000596046448
31
0
0
LINE
5
153
100
AcDbEntity
8
0
100
AcDbLine
10
20.000809496042397
20
94.000001400709152
30
0
11
20.000809496042393
21
73.89206745914332
31
0
0
LINE
5
154
100
AcDbEntity
8
0
100
AcDbLine
10
20.000754702737741
20
68.337239938508773
30
0
11
20.000754702737389
21
60.021931590751258
31
0
0
LINE
5
155
100
AcDbEntity
8
0
100
AcDbLine
10
20.000738278480654
20
54.319772391465946
30
0
11
20.000738278480625
21
46.009362620009313
31
0
0
LINE
5
156
100
AcDbEntity
8
0
100
AcDbLine
10
19.998070041985116
20
40.37463465823717
30
0
11
19.99807004198512
21
32.00452266325059
31
0
0
LINE
5
157
100
AcDbEntity
8
0
100
AcDbLine
10
19.998070041985116
20
26.415477336750179
30
0
11
19.998070041985116
21
-4.0000000596046448
31
0
0
LINE
5
158
100
AcDbEntity
8
0
100
AcDbLine
10
-7.0000001043081284
20
80.000001192092896
30
0
11
18.000000268220901
21
80.000001192092896
31
0
0
LINE
5
159
100
AcDbEntity
8
0
100
AcDbLine
10
-7.0000001043081284
20
78.000001162290573
30
0
11
18.000000268220901
21
78.000001162290573
31
0
0
LINE
5
160
100
AcDbEntity
8
0
100
AcDbLine
10
20.000809496042393
20
78.000001162290573
30
0
11
32.400000506639479
21
78.000001162290573
31
0
0
LINE
5
161
100
AcDbEntity
8
0
100
AcDbLine
10
20.000809496042393
20
79.893605515559969
30
0
11
32.400000506639479
21
79.893605515559969
31
0
0
LINE
5
162
100
AcDbEntity
8
0
100
AcDbLine
10
-7.0000001043081284
20
20.000000298023224
30
0
11
18.000000268220901
21
20.000000298023224
31
0
0
LINE
5
163
100
AcDbEntity
8
0
100
AcDbLine
10
19.998070041985116
20
19.911470321355615
30
0
11
44.980325928955537
21
19.911470321355615
31
0
0
LINE
5
164
100
AcDbEntity
8
0
100
AcDbLine
10
47.000000700354576
20
20.000000298023224
30
0
11
63.166969998412206
21
20.000000298023224
31
0
0
LINE
5
165
100
AcDbEntity
8
0
100
AcDbLine
10
69.000001028180122
20
19.905503322321451
30
0
11
93.091756893559165
21
19.905503322321451
31
0
0
LINE
5
166
100
AcDbEntity
8
0
100
AcDbLine
10
95.000001415610313
20
19.905503322321451
30
0
11
116.20000000000002
21
19.905503322321451
31
0
0
LINE
5
167
100
AcDbEntity
8
0
100
AcDbLine
10
-7.0000001043081284
20
18.000000268220901
30
0
11
18.000000268220901
21
18.000000268220901
31
0
0
LINE
5
168
100
AcDbEntity
8
0
100
AcDbLine
10
19.998070041985116
20
17.897027256628377
30
0
11
44.980325928955537
21
17.897027256628377
31
0
0
LINE
5
169
100
AcDbEntity
8
0
100
AcDbLine
10
47.000000700354576
20
17.81107435443225
30
0
11
62.548275767320845
21
17.81107435443225
31
0
0
LINE
5
170
100
AcDbEntity
8
0
100
AcDbLine
10
69.000001028180122
20
17.81107435443225
30
0
11
93.091756893559165
21
17.81107435443225
31
0
0
LINE
5
171
100
AcDbEntity
8
0
100
AcDbLine
10
95.000001415610313
20
18.000000268220901
30
0
11
116.20000000000002
21
18.000000268220901
31
0
0
LINE
5
172
100
AcDbEntity
8
0
100
AcDbLine
10
60.000000894069672
20
94.000001400709152
30
0
11
60.000000894069672
21
99.382090172413342
31
0
0
ARC
5
173
100
AcDbEntity
8
0
100
AcDbCircle
10
55.168968906905604
20
99.382090172413342
30
0
40
4.8310319871640672
210
0
220
0
230
1
100
AcDbArc
50
0
51
180.56625627511787
0
LINE
5
174
100
AcDbEntity
8
0
100
AcDbLine
10
50.338172851917534
20
94.000001400709152
30
0
11
50.338172851917534
21
99.334345684626641
31
0
0
CIRCLE
5
175
100
AcDbEntity
8
0
100
AcDbCircle
10
55.168968906905612
20
99.382090172413342
30
0
40
1.7500000000000071
210
0
220
0
230
1
0
LINE
5
176
100
AcDbEntity
8
0
100
AcDbLine
10
10.08
20
53.339999999999996
30
0
11
10.08
21
57.000000849366188
31
0
0
LINE
5
177
100
AcDbEntity
8
0
100
AcDbLine
10
0.080000000000000071
20
53.339999999999996
30
0
11
0.080000000000000071
21
57.000000849366188
31
0
0
LINE
5
178
100
AcDbEntity
8
0
100
AcDbLine
10
1.3300000000000027
20
53.339999999999996
30
0
11
1.3300000000000027
21
57.000000849366188
31
0
0
LINE
5
179
100
AcDbEntity
8
0
100
AcDbLine
10
8.8299999999999983
20
53.339999999999996
30
0
11
8.8299999999999983
21
57.000000849366188
31
0
0
ARC
5
180
100
AcDbEntity
8
0
100
AcDbCircle
10
5.080000000000001
20
56.797929712834261
30
0
40
3.7554404194740316
210
0
220
-0
230
1
100
AcDbArc
50
3.0844364638995225
51
176.91556353610051
0
ARC
5
181
100
AcDbEntity
8
0
100
AcDbCircle
10
5.0800000000000001
20
57.000000849366188
30
0
40
5
210
0
220
0
230
1
100
AcDbArc
50
0
51
180
0
ARC
5
182
100
AcDbEntity
8
0
100
AcDbCircle
10
5.0800000000000001
20
49.679999150633805
30
0
40
5
210
0
220
0
230
1
100
AcDbArc
50
-180
51
0
0
ARC
5
183
100
AcDbEntity
8
0
100
AcDbCircle
10
5.080000000000001
20
49.882070287165732
30
0
40
3.7554404194740321
210
0
220
0
230
1
100
AcDbArc
50
183.08443646389952
51
356.91556353610048
0
LINE
5
184
100
AcDbEntity
8
0
100
AcDbLine
10
1.3300000000000027
20
53.339999999999996
30
0
11
1.3300000000000027
21
49.679999150633805
31
0
0
LINE
5
185
100
AcDbEntity
8
0
100
AcDbLine
10
0.080000000000000071
20
53.339999999999996
30
0
11
0.080000000000000071
21
49.679999150633805
31
0
0
LINE
5
186
100
AcDbEntity
8
0
100
AcDbLine
10
10.08
20
53.339999999999996
30
0
11
10.08
21
49.679999150633805
31
0
0
LINE
5
187
100
AcDbEntity
8
0
100
AcDbLine
10
8.8299999999999983
20
53.339999999999996
30
0
11
8.8299999999999983
21
49.679999150633805
31
0
0
LINE
5
188
100
AcDbEntity
8
0
100
AcDbLine
10
-1.0000000596046446
20
80.000001192092896
30
0
11
-1.0000000596046446
21
78.000001162290573
31
0
0
LINE
5
189
100
AcDbEntity
8
0
100
AcDbLine
10
-1.0000000596046443
20
20.000000298023224
30
0
11
-1.0000000596046443
21
18.000000268220901
31
0
0
LINE
5
190
100
AcDbEntity
8
0
100
AcDbLine
10
18.000000268220905
20
1.9999999850988393
30
0
11
19.998070041985116
21
1.9999999850988393
31
0
0
LINE
5
191
100
AcDbEntity
8
0
100
AcDbLine
10
45.000000670552254
20
-23.232277359169451
30
0
11
46.743846953897894
21
-23.232277359169451
31
0
0
LINE
5
192
100
AcDbEntity
8
0
100
AcDbLine
10
45.000000670552254
20
1.9999999850988393
30
0
11
46.743846953897894
21
1.9999999850988393
31
0
0
LINE
5
193
100
AcDbEntity
8
0
100
AcDbLine
10
67.0000009983778
20
1.9999999850988393
30
0
11
69.000001028180122
21
1.9999999850988393
31
0
0
LINE
5
194
100
AcDbEntity
8
0
100
AcDbLine
10
93.091756893559165
20
1.9999999850988393
30
0
11
95.000001415610313
21
1.9999999850988393
31
0
0
LINE
5
195
100
AcDbEntity
8
0
100
AcDbLine
10
110.00000168383121
20
18.000000268220901
30
0
11
110.00000168383121
21
19.905503322321451
31
0
0
LINE
5
196
100
AcDbEntity
8
0
100
AcDbLine
10
18.000000268220901
20
88.000001356005683
30
0
11
20.000809496042397
21
88.000001356005683
31
0
0
LINE
5
197
100
AcDbEntity
8
0
100
AcDbLine
10
93.091756893559165
20
89.152044817348639
30
0
11
95.000001415610313
21
89.152044817348639
31
0
0
CIRCLE
5
198
100
AcDbEntity
8
0
100
AcDbCircle
10
52.070000000000007
20
48.230000000000004
30
0
40
3.25
210
0
220
0
230
1
0
CIRCLE
5
199
100
AcDbEntity
8
0
100
AcDbCircle
10
52.070000000000007
20
48.230000000000004
30
0
40
1.7500000000000002
210
0
220
0
230
1
0
ENDSEC
0
SECTION
2
OBJECTS
0
DICTIONARY
5
C
100
AcDbDictionary
3
ACAD_GROUP
350
D
3
ACAD_MLINESTYLE
350
17
0
DICTIONARY
5
D
100
AcDbDictionary
0
DICTIONARY
5
1A
330
C
100
AcDbDictionary
0
DICTIONARY
5
17
100
AcDbDictionary
0
ENDSEC
0
EOF
