%TF.GenerationSoftware,KiCad,Pcbnew,(5.1.6)-1*%
%TF.CreationDate,2022-01-29T20:29:42-05:00*%
%TF.ProjectId,led_board,6c65645f-626f-4617-9264-2e6b69636164,rev?*%
%TF.SameCoordinates,Original*%
%TF.FileFunction,Copper,L1,Top*%
%TF.FilePolarity,Positive*%
%FSLAX46Y46*%
G04 Gerber Fmt 4.6, Leading zero omitted, Abs format (unit mm)*
G04 Created by KiCad (PCBNEW (5.1.6)-1) date 2022-01-29 20:29:42*
%MOMM*%
%LPD*%
G01*
G04 APERTURE LIST*
%TA.AperFunction,ComponentPad*%
%ADD10C,2.200000*%
%TD*%
%TA.AperFunction,SMDPad,CuDef*%
%ADD11R,1.500000X3.000000*%
%TD*%
%TA.AperFunction,Conductor*%
%ADD12C,2.000000*%
%TD*%
%TA.AperFunction,Conductor*%
%ADD13C,1.500000*%
%TD*%
G04 APERTURE END LIST*
D10*
%TO.P,J1,1*%
%TO.N,Net-(D1-Pad3)*%
X2540000Y58420000D03*
%TO.P,J1,2*%
%TO.N,Net-(D1-Pad2)*%
X5080000Y58420000D03*
%TO.P,J1,3*%
%TO.N,Net-(D1-Pad1)*%
X7620000Y58420000D03*
%TD*%
%TO.P,J2,3*%
%TO.N,Net-(D1-Pad3)*%
X2540000Y2540000D03*
%TO.P,J2,2*%
%TO.N,Net-(D4-Pad4)*%
X5080000Y2540000D03*
%TO.P,J2,1*%
%TO.N,Net-(D1-Pad1)*%
X7620000Y2540000D03*
%TD*%
%TO.P,J3,1*%
%TO.N,Net-(D1-Pad1)*%
X7620000Y60960000D03*
%TD*%
%TO.P,J4,1*%
%TO.N,Net-(D1-Pad3)*%
X2540000Y60960000D03*
%TD*%
D11*
%TO.P,D1,1*%
%TO.N,Net-(D1-Pad1)*%
X6680000Y55020000D03*
%TO.P,D1,2*%
%TO.N,Net-(D1-Pad2)*%
X3480000Y55020000D03*
%TO.P,D1,4*%
%TO.N,Net-(D1-Pad4)*%
X6680000Y49120000D03*
%TO.P,D1,3*%
%TO.N,Net-(D1-Pad3)*%
X3480000Y49120000D03*
%TD*%
%TO.P,D2,3*%
%TO.N,Net-(D1-Pad3)*%
X3480000Y35150000D03*
%TO.P,D2,4*%
%TO.N,Net-(D2-Pad4)*%
X6680000Y35150000D03*
%TO.P,D2,2*%
%TO.N,Net-(D1-Pad4)*%
X3480000Y41050000D03*
%TO.P,D2,1*%
%TO.N,Net-(D1-Pad1)*%
X6680000Y41050000D03*
%TD*%
%TO.P,D3,1*%
%TO.N,Net-(D1-Pad1)*%
X6680000Y27080000D03*
%TO.P,D3,2*%
%TO.N,Net-(D2-Pad4)*%
X3480000Y27080000D03*
%TO.P,D3,4*%
%TO.N,Net-(D3-Pad4)*%
X6680000Y21180000D03*
%TO.P,D3,3*%
%TO.N,Net-(D1-Pad3)*%
X3480000Y21180000D03*
%TD*%
%TO.P,D4,3*%
%TO.N,Net-(D1-Pad3)*%
X3480000Y7210000D03*
%TO.P,D4,4*%
%TO.N,Net-(D4-Pad4)*%
X6680000Y7210000D03*
%TO.P,D4,2*%
%TO.N,Net-(D3-Pad4)*%
X3480000Y13110000D03*
%TO.P,D4,1*%
%TO.N,Net-(D1-Pad1)*%
X6680000Y13110000D03*
%TD*%
D12*
%TO.N,Net-(D1-Pad1)*%
X7620000Y60960000D02*
X7620000Y58420000D01*
D13*
X7620000Y58420000D02*
X8890000Y57150000D01*
X8890000Y3810000D02*
X7620000Y2540000D01*
X6680000Y13110000D02*
X6680000Y14300000D01*
X6680000Y14300000D02*
X8890000Y16510000D01*
X8890000Y16510000D02*
X8890000Y3810000D01*
X6680000Y28270000D02*
X8890000Y30480000D01*
X6680000Y27080000D02*
X6680000Y28270000D01*
X8890000Y30480000D02*
X8890000Y16510000D01*
X6680000Y42240000D02*
X8890000Y44450000D01*
X6680000Y41050000D02*
X6680000Y42240000D01*
X8890000Y57150000D02*
X8890000Y44450000D01*
X8890000Y44450000D02*
X8890000Y30480000D01*
X6760000Y55020000D02*
X8890000Y57150000D01*
X6680000Y55020000D02*
X6760000Y55020000D01*
%TO.N,Net-(D1-Pad2)*%
X3480000Y56369999D02*
X5080000Y57969999D01*
X5080000Y57969999D02*
X5080000Y58420000D01*
X3480000Y55020000D02*
X3480000Y56369999D01*
%TO.N,Net-(D1-Pad4)*%
X3480000Y41050000D02*
X3480000Y42850000D01*
X6680000Y46050000D02*
X6680000Y49120000D01*
X3480000Y42850000D02*
X6680000Y46050000D01*
D12*
%TO.N,Net-(D1-Pad3)*%
X2540000Y60960000D02*
X2540000Y58420000D01*
D13*
X2540000Y2540000D02*
X975010Y4104990D01*
X975010Y56855010D02*
X2540000Y58420000D01*
X3480000Y49120000D02*
X3480000Y47249980D01*
X3480000Y47249980D02*
X975010Y44744990D01*
X975010Y44744990D02*
X975010Y56855010D01*
X3480000Y33279980D02*
X975010Y30774990D01*
X3480000Y35150000D02*
X3480000Y33279980D01*
X975010Y30774990D02*
X975010Y44744990D01*
X3480000Y19309980D02*
X975010Y16804990D01*
X975010Y4104990D02*
X975010Y16804990D01*
X3480000Y21180000D02*
X3480000Y19309980D01*
X975010Y16804990D02*
X975010Y30774990D01*
X3480000Y6609980D02*
X975010Y4104990D01*
X3480000Y7210000D02*
X3480000Y6609980D01*
%TO.N,Net-(D2-Pad4)*%
X3480000Y27080000D02*
X3480000Y28880000D01*
X6680000Y32080000D02*
X6680000Y35150000D01*
X3480000Y28880000D02*
X6680000Y32080000D01*
%TO.N,Net-(D3-Pad4)*%
X3480000Y13110000D02*
X3480000Y14910000D01*
X6680000Y18110000D02*
X6680000Y21180000D01*
X3480000Y14910000D02*
X6680000Y18110000D01*
%TO.N,Net-(D4-Pad4)*%
X6680000Y5695634D02*
X6680000Y7210000D01*
X5080000Y4095634D02*
X6680000Y5695634D01*
X5080000Y2540000D02*
X5080000Y4095634D01*
%TD*%
M02*
