%TF.GenerationSoftware,KiCad,Pcbnew,(5.1.6)-1*%
%TF.CreationDate,2022-01-29T16:48:41-05:00*%
%TF.ProjectId,led_board,6c65645f-626f-4617-9264-2e6b69636164,rev?*%
%TF.SameCoordinates,Original*%
%TF.FileFunction,Copper,L1,Top*%
%TF.FilePolarity,Positive*%
%FSLAX46Y46*%
G04 Gerber Fmt 4.6, Leading zero omitted, Abs format (unit mm)*
G04 Created by KiCad (PCBNEW (5.1.6)-1) date 2022-01-29 16:48:41*
%MOMM*%
%LPD*%
G01*
G04 APERTURE LIST*
%TA.AperFunction,SMDPad,CuDef*%
%ADD10R,1.500000X1.000000*%
%TD*%
%TA.AperFunction,ComponentPad*%
%ADD11C,2.200000*%
%TD*%
%TA.AperFunction,Conductor*%
%ADD12C,2.000000*%
%TD*%
%TA.AperFunction,Conductor*%
%ADD13C,1.000000*%
%TD*%
%TA.AperFunction,Conductor*%
%ADD14C,1.250000*%
%TD*%
G04 APERTURE END LIST*
D10*
%TO.P,D1,1*%
%TO.N,Net-(D1-Pad1)*%
X2630000Y54940000D03*
%TO.P,D1,2*%
%TO.N,Net-(D1-Pad2)*%
X2630000Y51740000D03*
%TO.P,D1,4*%
%TO.N,Net-(D1-Pad4)*%
X7530000Y54940000D03*
%TO.P,D1,3*%
%TO.N,Net-(D1-Pad3)*%
X7530000Y51740000D03*
%TD*%
%TO.P,D2,3*%
%TO.N,Net-(D1-Pad3)*%
X7530000Y36500000D03*
%TO.P,D2,4*%
%TO.N,Net-(D2-Pad4)*%
X7530000Y39700000D03*
%TO.P,D2,2*%
%TO.N,Net-(D1-Pad4)*%
X2630000Y36500000D03*
%TO.P,D2,1*%
%TO.N,Net-(D1-Pad1)*%
X2630000Y39700000D03*
%TD*%
%TO.P,D3,1*%
%TO.N,Net-(D1-Pad1)*%
X2630000Y24460000D03*
%TO.P,D3,2*%
%TO.N,Net-(D2-Pad4)*%
X2630000Y21260000D03*
%TO.P,D3,4*%
%TO.N,Net-(D3-Pad4)*%
X7530000Y24460000D03*
%TO.P,D3,3*%
%TO.N,Net-(D1-Pad3)*%
X7530000Y21260000D03*
%TD*%
%TO.P,D4,3*%
%TO.N,Net-(D1-Pad3)*%
X7530000Y6020000D03*
%TO.P,D4,4*%
%TO.N,Net-(D4-Pad4)*%
X7530000Y9220000D03*
%TO.P,D4,2*%
%TO.N,Net-(D3-Pad4)*%
X2630000Y6020000D03*
%TO.P,D4,1*%
%TO.N,Net-(D1-Pad1)*%
X2630000Y9220000D03*
%TD*%
D11*
%TO.P,J1,1*%
%TO.N,Net-(D1-Pad1)*%
X2540000Y58420000D03*
%TO.P,J1,2*%
%TO.N,Net-(D1-Pad2)*%
X5080000Y58420000D03*
%TO.P,J1,3*%
%TO.N,Net-(D1-Pad3)*%
X7620000Y58420000D03*
%TD*%
%TO.P,J2,3*%
%TO.N,Net-(D1-Pad1)*%
X2540000Y2540000D03*
%TO.P,J2,2*%
%TO.N,Net-(D4-Pad4)*%
X5080000Y2540000D03*
%TO.P,J2,1*%
%TO.N,Net-(D1-Pad3)*%
X7620000Y2540000D03*
%TD*%
%TO.P,J3,1*%
%TO.N,Net-(D1-Pad1)*%
X2540000Y60960000D03*
%TD*%
%TO.P,J4,1*%
%TO.N,Net-(D1-Pad3)*%
X7620000Y60960000D03*
%TD*%
D12*
%TO.N,Net-(D1-Pad1)*%
X2540000Y60960000D02*
X2540000Y58420000D01*
D13*
X2540000Y55099999D02*
X2380001Y54940000D01*
X2540000Y58420000D02*
X2540000Y55099999D01*
D14*
X2630000Y54700000D02*
X2630000Y54940000D01*
X850010Y52920010D02*
X2630000Y54700000D01*
X2540000Y2540000D02*
X850010Y4229990D01*
X940000Y9220000D02*
X850010Y9309990D01*
X2630000Y9220000D02*
X940000Y9220000D01*
X850010Y4229990D02*
X850010Y9309990D01*
X2630000Y24460000D02*
X940000Y24460000D01*
X850010Y9309990D02*
X850010Y24549990D01*
X940000Y24460000D02*
X850010Y24549990D01*
X940000Y39700000D02*
X850010Y39789990D01*
X2630000Y39700000D02*
X940000Y39700000D01*
X850010Y24549990D02*
X850010Y39789990D01*
X850010Y39789990D02*
X850010Y52920010D01*
D13*
%TO.N,Net-(D1-Pad2)*%
X5080000Y54439999D02*
X2380001Y51740000D01*
X5080000Y58420000D02*
X5080000Y54439999D01*
%TO.N,Net-(D1-Pad4)*%
X5080000Y38950000D02*
X2630000Y36500000D01*
X4953000Y51943000D02*
X5080000Y51816000D01*
X7280001Y54940000D02*
X7280001Y54270001D01*
X5080000Y51816000D02*
X5080000Y38950000D01*
X7280001Y54270001D02*
X4953000Y51943000D01*
D12*
%TO.N,Net-(D1-Pad3)*%
X7620000Y60960000D02*
X7620000Y58420000D01*
D13*
X7620000Y5930000D02*
X7530000Y6020000D01*
X7620000Y2540000D02*
X7620000Y5930000D01*
D14*
X7280001Y21260000D02*
X7290000Y21260000D01*
X7530000Y36500000D02*
X7530000Y36740000D01*
X7280001Y51740000D02*
X7290000Y51740000D01*
X7620000Y58420000D02*
X9309990Y56730010D01*
X7530000Y6235010D02*
X9309990Y8015000D01*
X7530000Y6020000D02*
X7530000Y6235010D01*
X9195000Y21260000D02*
X9309990Y21374990D01*
X7280001Y21260000D02*
X9195000Y21260000D01*
X9309990Y21374990D02*
X9309990Y8015000D01*
X9195000Y36500000D02*
X9309990Y36614990D01*
X7530000Y36500000D02*
X9195000Y36500000D01*
X9309990Y36614990D02*
X9309990Y21374990D01*
X9220000Y51740000D02*
X9309990Y51650010D01*
X9309990Y56730010D02*
X9309990Y51650010D01*
X7280001Y51740000D02*
X9220000Y51740000D01*
X9309990Y51650010D02*
X9309990Y36614990D01*
D13*
%TO.N,Net-(D2-Pad4)*%
X7530000Y39700000D02*
X7530000Y39407000D01*
X7530000Y39407000D02*
X4826000Y36703000D01*
X4826000Y23705999D02*
X2380001Y21260000D01*
X4826000Y36703000D02*
X4826000Y23705999D01*
%TO.N,Net-(D3-Pad4)*%
X7280001Y24460000D02*
X7280001Y24298001D01*
X7280001Y24298001D02*
X4953000Y21971000D01*
X4953000Y8343000D02*
X2630000Y6020000D01*
X4953000Y21971000D02*
X4953000Y8343000D01*
%TO.N,Net-(D4-Pad4)*%
X5080000Y5959998D02*
X5080000Y2540000D01*
X7530000Y8409998D02*
X5080000Y5959998D01*
X7530000Y9220000D02*
X7530000Y8409998D01*
%TD*%
M02*
