M48
; DRILL file {KiCad (5.1.6)-1} date 12/23/21 19:29:38
; FORMAT={-:-/ absolute / metric / decimal}
; #@! TF.CreationDate,2021-12-23T19:29:38-05:00
; #@! TF.GenerationSoftware,Kicad,Pcbnew,(5.1.6)-1
FMAT,2
METRIC
T1C0.800
T2C1.000
T3C3.000
%
G90
G05
T1
X22.86Y25.4
X26.67Y66.04
X27.94Y78.74
X27.94Y40.64
X27.94Y40.64
X27.94Y30.48
X30.48Y40.64
X30.48Y33.02
X32.69Y25.375
X33.02Y40.64
X33.02Y35.56
X37.017Y79.34
X38.1Y56.2
X38.1Y26.67
X40.3Y30.1
X40.4Y56.2
X42.58Y45.72
X42.7Y56.3
X49.5Y66.04
X52.07Y54.483
X53.34Y12.7
X64.77Y54.483
X67.31Y54.483
X71.12Y15.24
X73.66Y19.05
X76.2Y21.59
X80.01Y54.483
X82.55Y54.483
X88.9Y22.86
X88.9Y20.32
X91.44Y15.24
X91.44Y12.7
X93.98Y30.48
X93.98Y12.7
X97.79Y54.483
X25.4Y22.86
X3.81Y66.04
X25.4Y83.82
X81.28Y7.62
X60.96Y7.62
X17.78Y35.56
X25.4Y35.56
X12.7Y69.85
X20.32Y69.85
X39.47Y76.8
X39.47Y79.34
X39.47Y81.89
X71.12Y38.1
X17.78Y38.1
X25.4Y38.1
X66.04Y7.62
X20.32Y78.74
X20.32Y22.86
X101.6Y20.32
X101.6Y12.7
X39.47Y74.26
X44.45Y6.35
X52.07Y6.35
X66.04Y38.1
X25.4Y78.83
X96.52Y25.4
X96.52Y22.86
X96.52Y20.32
X96.52Y17.78
X96.52Y15.24
X96.52Y12.7
X30.48Y50.8
X30.48Y43.18
X83.82Y7.62
X27.94Y50.8
X27.94Y43.18
X7.62Y71.12
X7.62Y63.5
X53.34Y35.56
X53.34Y10.16
X55.88Y35.56
X55.88Y10.16
X58.42Y35.56
X58.42Y10.16
X60.96Y35.56
X60.96Y10.16
X63.5Y35.56
X63.5Y10.16
X66.04Y35.56
X66.04Y10.16
X68.58Y35.56
X68.58Y10.16
X71.12Y35.56
X71.12Y10.16
X73.66Y35.56
X73.66Y10.16
X76.2Y35.56
X76.2Y10.16
X78.74Y35.56
X78.74Y10.16
X81.28Y35.56
X81.28Y10.16
X83.82Y35.56
X83.82Y10.16
X86.36Y35.56
X86.36Y10.16
X88.9Y35.56
X88.9Y10.16
X22.86Y22.86
X13.97Y60.96
X13.97Y45.72
X22.86Y60.96
X22.86Y45.72
X22.77Y78.83
X40.64Y11.43
X40.64Y8.89
X40.64Y6.35
X35.56Y50.8
X35.56Y43.18
X12.7Y66.04
X20.32Y66.04
X93.98Y35.56
X93.98Y33.02
X22.86Y83.82
X68.58Y38.1
X33.02Y50.8
X33.02Y43.18
X8.89Y40.64
X11.43Y40.64
X17.78Y30.48
X25.4Y30.48
X3.81Y71.12
X20.32Y83.82
X68.58Y7.62
X17.78Y33.02
X25.4Y33.02
X36.83Y13.97
X36.83Y6.35
T2
X46.99Y50.8
X46.99Y45.72
X52.07Y50.8
X52.07Y45.72
X5.08Y22.86
X77.47Y50.8
X77.47Y45.72
X82.55Y50.8
X82.55Y45.72
X5.08Y12.7
X5.08Y27.94
X16.28Y4.16
X16.33Y16.21
X28.53Y16.21
X28.53Y4.21
X30.48Y10.16
X7.62Y77.47
X10.16Y77.47
X12.7Y77.47
X5.08Y33.02
X5.08Y17.78
X62.23Y50.8
X62.23Y45.72
X67.31Y50.8
X67.31Y45.72
X92.71Y50.8
X92.71Y45.72
X97.79Y50.8
X97.79Y45.72
T3
X3.8Y85.1
X3.81Y3.81
X33.5Y85.9
X33.528Y55.88
X107.442Y85.852
X107.442Y55.88
X107.95Y3.81
T2
G00X4.58Y57.84
M15
G01X5.58Y57.84
M16
G05
G00X4.58Y53.34
M15
G01X5.58Y53.34
M16
G05
G00X4.58Y48.84
M15
G01X5.58Y48.84
M16
G05
T0
M30
