%TF.GenerationSoftware,KiCad,Pcbnew,(5.1.6)-1*%
%TF.CreationDate,2021-12-23T19:14:42-05:00*%
%TF.ProjectId,bilgeAlarm,62696c67-6541-46c6-9172-6d2e6b696361,rev?*%
%TF.SameCoordinates,Original*%
%TF.FileFunction,Soldermask,Bot*%
%TF.FilePolarity,Negative*%
%FSLAX46Y46*%
G04 Gerber Fmt 4.6, Leading zero omitted, Abs format (unit mm)*
G04 Created by KiCad (PCBNEW (5.1.6)-1) date 2021-12-23 19:14:42*
%MOMM*%
%LPD*%
G01*
G04 APERTURE LIST*
%ADD10C,2.000000*%
%ADD11C,2.200000*%
%ADD12C,2.100000*%
%ADD13C,2.500000*%
%ADD14O,3.000000X2.000000*%
%ADD15C,4.000000*%
G04 APERTURE END LIST*
D10*
%TO.C,U1*%
X53340000Y35560000D03*
X55880000Y35560000D03*
X58420000Y35560000D03*
X60960000Y35560000D03*
X63500000Y35560000D03*
X66040000Y35560000D03*
X68580000Y35560000D03*
X71120000Y35560000D03*
X73660000Y35560000D03*
X76200000Y35560000D03*
X78740000Y35560000D03*
X81280000Y35560000D03*
X83820000Y35560000D03*
X86360000Y35560000D03*
X88900000Y35560000D03*
X88900000Y10160000D03*
X86360000Y10160000D03*
X83820000Y10160000D03*
X81280000Y10160000D03*
X78740000Y10160000D03*
X76200000Y10160000D03*
X73660000Y10160000D03*
X71120000Y10160000D03*
X68580000Y10160000D03*
X66040000Y10160000D03*
X63500000Y10160000D03*
X60960000Y10160000D03*
X58420000Y10160000D03*
X55880000Y10160000D03*
X53340000Y10160000D03*
%TD*%
D11*
%TO.C,J16*%
X20320000Y78740000D03*
%TD*%
%TO.C,C1*%
X8890000Y40640000D03*
X11430000Y40640000D03*
%TD*%
%TO.C,C2*%
X93980000Y33020000D03*
X93980000Y35560000D03*
%TD*%
D12*
%TO.C,J1*%
X5080000Y12700000D03*
%TD*%
%TO.C,J3*%
X5080000Y17780000D03*
%TD*%
%TO.C,J2*%
X5080000Y22860000D03*
%TD*%
%TO.C,J4*%
X5080000Y33020000D03*
%TD*%
%TO.C,J5*%
X5080000Y27940000D03*
%TD*%
D11*
%TO.C,J6*%
X25400000Y22860000D03*
%TD*%
%TO.C,J7*%
X22860000Y22860000D03*
%TD*%
%TO.C,J8*%
X20320000Y22860000D03*
%TD*%
%TO.C,J9*%
X39470000Y79340000D03*
%TD*%
%TO.C,J10*%
X39470000Y76800000D03*
%TD*%
%TO.C,J11*%
X39470000Y74260000D03*
%TD*%
%TO.C,J12*%
X39470000Y81890000D03*
%TD*%
%TO.C,J13*%
X3810000Y66040000D03*
%TD*%
%TO.C,J14*%
X3810000Y71120000D03*
%TD*%
D13*
%TO.C,K1*%
X28530000Y16210000D03*
D12*
X16330000Y16210000D03*
X16280000Y4160000D03*
D13*
X28530000Y4210000D03*
D12*
X30480000Y10160000D03*
%TD*%
D11*
%TO.C,M1*%
X22860000Y60960000D03*
X22860000Y45720000D03*
X13970000Y45720000D03*
X13970000Y60960000D03*
%TD*%
%TO.C,M2*%
X96520000Y25400000D03*
X96520000Y22860000D03*
X96520000Y20320000D03*
X96520000Y17780000D03*
X96520000Y15240000D03*
X96520000Y12700000D03*
%TD*%
%TO.C,R1*%
X101600000Y12700000D03*
X101600000Y20320000D03*
%TD*%
%TO.C,R3*%
X17780000Y30480000D03*
X25400000Y30480000D03*
%TD*%
%TO.C,R4*%
X25400000Y33020000D03*
X17780000Y33020000D03*
%TD*%
%TO.C,R5*%
X25400000Y35560000D03*
X17780000Y35560000D03*
%TD*%
%TO.C,R6*%
X25400000Y38100000D03*
X17780000Y38100000D03*
%TD*%
%TO.C,R8*%
X27940000Y50800000D03*
X27940000Y43180000D03*
%TD*%
%TO.C,R9*%
X30480000Y50800000D03*
X30480000Y43180000D03*
%TD*%
%TO.C,R10*%
X33020000Y50800000D03*
X33020000Y43180000D03*
%TD*%
%TO.C,R11*%
X35560000Y50800000D03*
X35560000Y43180000D03*
%TD*%
%TO.C,R13*%
X44450000Y6350000D03*
X52070000Y6350000D03*
%TD*%
D14*
%TO.C,SW1*%
X5080000Y53340000D03*
X5080000Y48840000D03*
X5080000Y57840000D03*
%TD*%
D12*
%TO.C,SW2*%
X46990000Y45720000D03*
X46990000Y50800000D03*
X52070000Y45720000D03*
X52070000Y50800000D03*
%TD*%
%TO.C,SW3*%
X67310000Y50800000D03*
X67310000Y45720000D03*
X62230000Y50800000D03*
X62230000Y45720000D03*
%TD*%
%TO.C,SW4*%
X77470000Y45720000D03*
X77470000Y50800000D03*
X82550000Y45720000D03*
X82550000Y50800000D03*
%TD*%
%TO.C,SW5*%
X97790000Y50800000D03*
X97790000Y45720000D03*
X92710000Y50800000D03*
X92710000Y45720000D03*
%TD*%
D11*
%TO.C,J15*%
X20320000Y83820000D03*
%TD*%
%TO.C,J17*%
X22860000Y83820000D03*
%TD*%
%TO.C,J18*%
X22770001Y78829999D03*
%TD*%
%TO.C,J19*%
X25400000Y83820000D03*
%TD*%
%TO.C,J20*%
X25400000Y78829999D03*
%TD*%
%TO.C,Q2*%
X40640000Y6350000D03*
X40640000Y8890000D03*
X40640000Y11430000D03*
%TD*%
%TO.C,D2*%
X36830000Y13970000D03*
X36830000Y6350000D03*
%TD*%
%TO.C,Q1*%
X12700000Y77470000D03*
X10160000Y77470000D03*
X7620000Y77470000D03*
%TD*%
%TO.C,R2*%
X20320000Y66040000D03*
X12700000Y66040000D03*
%TD*%
%TO.C,R7*%
X20320000Y69850000D03*
X12700000Y69850000D03*
%TD*%
%TO.C,D1*%
X7620000Y63500000D03*
X7620000Y71120000D03*
%TD*%
%TO.C,J21*%
X60960000Y7620000D03*
%TD*%
%TO.C,J22*%
X66040000Y7620000D03*
%TD*%
%TO.C,J23*%
X68580000Y7620000D03*
%TD*%
%TO.C,J24*%
X66040000Y38100000D03*
%TD*%
%TO.C,J25*%
X68580000Y38100000D03*
%TD*%
%TO.C,J26*%
X71120000Y38100000D03*
%TD*%
%TO.C,J27*%
X81280000Y7620000D03*
%TD*%
%TO.C,J28*%
X83820000Y7620000D03*
%TD*%
D15*
X107442000Y85852000D03*
X107950000Y3810000D03*
X33528000Y55880000D03*
X3810000Y3810000D03*
X107442000Y55880000D03*
X33500000Y85900000D03*
X3800000Y85100000D03*
D10*
X27940000Y78740000D03*
X37017400Y79340000D03*
X42700000Y56300000D03*
X42580000Y45720000D03*
X91440000Y12700000D03*
X53340000Y12700000D03*
X93980000Y12700000D03*
X93980000Y30480000D03*
X80010000Y54483000D03*
X82550000Y54483000D03*
X67310000Y54483000D03*
X64770000Y54483000D03*
X52070000Y54483000D03*
X97790000Y54483000D03*
X22860000Y25400000D03*
X32689800Y25374600D03*
X38100000Y26670000D03*
X38100000Y56200000D03*
X40400000Y56200000D03*
X40300000Y30100000D03*
X88900000Y22860000D03*
X76200000Y21590000D03*
X88900000Y20320000D03*
X73660000Y19050000D03*
X91440000Y15240000D03*
X71120000Y15240000D03*
X27940000Y30480000D03*
X27940000Y40640000D03*
X27940000Y40640000D03*
X30480000Y40640000D03*
X30480000Y33020000D03*
X33020000Y35560000D03*
X33020000Y40640000D03*
X26670000Y66040000D03*
X49500000Y66040000D03*
M02*
