%TF.GenerationSoftware,KiCad,Pcbnew,(5.1.6)-1*%
%TF.CreationDate,2022-01-22T13:21:43-05:00*%
%TF.ProjectId,bilgeAlarm,62696c67-6541-46c6-9172-6d2e6b696361,rev?*%
%TF.SameCoordinates,Original*%
%TF.FileFunction,Other,Comment*%
%FSLAX46Y46*%
G04 Gerber Fmt 4.6, Leading zero omitted, Abs format (unit mm)*
G04 Created by KiCad (PCBNEW (5.1.6)-1) date 2022-01-22 13:21:43*
%MOMM*%
%LPD*%
G01*
G04 APERTURE LIST*
%ADD10C,0.010000*%
G04 APERTURE END LIST*
D10*
X88569142Y69968857D02*
X88569142Y67826000D01*
X88688190Y67397428D01*
X88926285Y67111714D01*
X89283428Y66968857D01*
X89521523Y66968857D01*
X86307238Y66968857D02*
X86307238Y68540285D01*
X86426285Y68826000D01*
X86664380Y68968857D01*
X87140571Y68968857D01*
X87378666Y68826000D01*
X86307238Y67111714D02*
X86545333Y66968857D01*
X87140571Y66968857D01*
X87378666Y67111714D01*
X87497714Y67397428D01*
X87497714Y67683142D01*
X87378666Y67968857D01*
X87140571Y68111714D01*
X86545333Y68111714D01*
X86307238Y68254571D01*
X85116761Y68968857D02*
X85116761Y66968857D01*
X85116761Y68683142D02*
X84997714Y68826000D01*
X84759619Y68968857D01*
X84402476Y68968857D01*
X84164380Y68826000D01*
X84045333Y68540285D01*
X84045333Y66968857D01*
X81783428Y68968857D02*
X81783428Y66968857D01*
X82854857Y68968857D02*
X82854857Y67397428D01*
X82735809Y67111714D01*
X82497714Y66968857D01*
X82140571Y66968857D01*
X81902476Y67111714D01*
X81783428Y67254571D01*
X79521523Y66968857D02*
X79521523Y68540285D01*
X79640571Y68826000D01*
X79878666Y68968857D01*
X80354857Y68968857D01*
X80592952Y68826000D01*
X79521523Y67111714D02*
X79759619Y66968857D01*
X80354857Y66968857D01*
X80592952Y67111714D01*
X80712000Y67397428D01*
X80712000Y67683142D01*
X80592952Y67968857D01*
X80354857Y68111714D01*
X79759619Y68111714D01*
X79521523Y68254571D01*
X78331047Y66968857D02*
X78331047Y68968857D01*
X78331047Y68397428D02*
X78212000Y68683142D01*
X78092952Y68826000D01*
X77854857Y68968857D01*
X77616761Y68968857D01*
X77021523Y68968857D02*
X76426285Y66968857D01*
X75831047Y68968857D02*
X76426285Y66968857D01*
X76664380Y66254571D01*
X76783428Y66111714D01*
X77021523Y65968857D01*
X73092952Y69683142D02*
X72973904Y69826000D01*
X72735809Y69968857D01*
X72140571Y69968857D01*
X71902476Y69826000D01*
X71783428Y69683142D01*
X71664380Y69397428D01*
X71664380Y69111714D01*
X71783428Y68683142D01*
X73212000Y66968857D01*
X71664380Y66968857D01*
X70116761Y69968857D02*
X69878666Y69968857D01*
X69640571Y69826000D01*
X69521523Y69683142D01*
X69402476Y69397428D01*
X69283428Y68826000D01*
X69283428Y68111714D01*
X69402476Y67540285D01*
X69521523Y67254571D01*
X69640571Y67111714D01*
X69878666Y66968857D01*
X70116761Y66968857D01*
X70354857Y67111714D01*
X70473904Y67254571D01*
X70592952Y67540285D01*
X70712000Y68111714D01*
X70712000Y68826000D01*
X70592952Y69397428D01*
X70473904Y69683142D01*
X70354857Y69826000D01*
X70116761Y69968857D01*
X68331047Y69683142D02*
X68212000Y69826000D01*
X67973904Y69968857D01*
X67378666Y69968857D01*
X67140571Y69826000D01*
X67021523Y69683142D01*
X66902476Y69397428D01*
X66902476Y69111714D01*
X67021523Y68683142D01*
X68450095Y66968857D01*
X66902476Y66968857D01*
X65950095Y69683142D02*
X65831047Y69826000D01*
X65592952Y69968857D01*
X64997714Y69968857D01*
X64759619Y69826000D01*
X64640571Y69683142D01*
X64521523Y69397428D01*
X64521523Y69111714D01*
X64640571Y68683142D01*
X66069142Y66968857D01*
X64521523Y66968857D01*
X90067443Y72048857D02*
X89692443Y75048857D01*
X88740062Y75048857D01*
X88519824Y74906000D01*
X88418633Y74763142D01*
X88335300Y74477428D01*
X88388872Y74048857D01*
X88543633Y73763142D01*
X88680538Y73620285D01*
X88936491Y73477428D01*
X89888872Y73477428D01*
X86496014Y72048857D02*
X86299586Y73620285D01*
X86382919Y73906000D01*
X86603157Y74048857D01*
X87079348Y74048857D01*
X87335300Y73906000D01*
X86478157Y72191714D02*
X86734110Y72048857D01*
X87329348Y72048857D01*
X87549586Y72191714D01*
X87632919Y72477428D01*
X87597205Y72763142D01*
X87442443Y73048857D01*
X87186491Y73191714D01*
X86591252Y73191714D01*
X86335300Y73334571D01*
X85412681Y74048857D02*
X84460300Y74048857D01*
X84930538Y75048857D02*
X85251967Y72477428D01*
X85168633Y72191714D01*
X84948395Y72048857D01*
X84710300Y72048857D01*
X83876967Y72048857D02*
X83626967Y74048857D01*
X83698395Y73477428D02*
X83543633Y73763142D01*
X83406729Y73906000D01*
X83150776Y74048857D01*
X82912681Y74048857D01*
X82329348Y72048857D02*
X82079348Y74048857D01*
X81954348Y75048857D02*
X82091252Y74906000D01*
X81990062Y74763142D01*
X81853157Y74906000D01*
X81954348Y75048857D01*
X81990062Y74763142D01*
X80049586Y72191714D02*
X80305538Y72048857D01*
X80781729Y72048857D01*
X81001967Y72191714D01*
X81103157Y72334571D01*
X81186491Y72620285D01*
X81079348Y73477428D01*
X80924586Y73763142D01*
X80787681Y73906000D01*
X80531729Y74048857D01*
X80055538Y74048857D01*
X79835300Y73906000D01*
X78996014Y72048857D02*
X78621014Y75048857D01*
X78615062Y73191714D02*
X78043633Y72048857D01*
X77793633Y74048857D02*
X78888872Y72906000D01*
X75067443Y72048857D02*
X74692443Y75048857D01*
X74871014Y73620285D02*
X73442443Y73620285D01*
X73638872Y72048857D02*
X73263872Y75048857D01*
X72091252Y72048857D02*
X72311491Y72191714D01*
X72412681Y72334571D01*
X72496014Y72620285D01*
X72388872Y73477428D01*
X72234110Y73763142D01*
X72097205Y73906000D01*
X71841252Y74048857D01*
X71484110Y74048857D01*
X71263872Y73906000D01*
X71162681Y73763142D01*
X71079348Y73477428D01*
X71186491Y72620285D01*
X71341252Y72334571D01*
X71478157Y72191714D01*
X71734110Y72048857D01*
X72091252Y72048857D01*
X70186491Y72048857D02*
X69936491Y74048857D01*
X70007919Y73477428D02*
X69853157Y73763142D01*
X69716252Y73906000D01*
X69460300Y74048857D01*
X69222205Y74048857D01*
X68746014Y74048857D02*
X67793633Y74048857D01*
X68263872Y75048857D02*
X68585300Y72477428D01*
X68501967Y72191714D01*
X68281729Y72048857D01*
X68043633Y72048857D01*
X66853157Y72048857D02*
X67073395Y72191714D01*
X67174586Y72334571D01*
X67257919Y72620285D01*
X67150776Y73477428D01*
X66996014Y73763142D01*
X66859110Y73906000D01*
X66603157Y74048857D01*
X66246014Y74048857D01*
X66025776Y73906000D01*
X65924586Y73763142D01*
X65841252Y73477428D01*
X65948395Y72620285D01*
X66103157Y72334571D01*
X66240062Y72191714D01*
X66496014Y72048857D01*
X66853157Y72048857D01*
X64698395Y74048857D02*
X64948395Y72048857D01*
X64734110Y73763142D02*
X64597205Y73906000D01*
X64341252Y74048857D01*
X63984110Y74048857D01*
X63763872Y73906000D01*
X63680538Y73620285D01*
X63876967Y72048857D01*
X93033428Y77128857D02*
X93033428Y80128857D01*
X93033428Y78986000D02*
X92795333Y79128857D01*
X92319142Y79128857D01*
X92081047Y78986000D01*
X91962000Y78843142D01*
X91842952Y78557428D01*
X91842952Y77700285D01*
X91962000Y77414571D01*
X92081047Y77271714D01*
X92319142Y77128857D01*
X92795333Y77128857D01*
X93033428Y77271714D01*
X90771523Y77128857D02*
X90771523Y79128857D01*
X90771523Y80128857D02*
X90890571Y79986000D01*
X90771523Y79843142D01*
X90652476Y79986000D01*
X90771523Y80128857D01*
X90771523Y79843142D01*
X89223904Y77128857D02*
X89462000Y77271714D01*
X89581047Y77557428D01*
X89581047Y80128857D01*
X87200095Y79128857D02*
X87200095Y76700285D01*
X87319142Y76414571D01*
X87438190Y76271714D01*
X87676285Y76128857D01*
X88033428Y76128857D01*
X88271523Y76271714D01*
X87200095Y77271714D02*
X87438190Y77128857D01*
X87914380Y77128857D01*
X88152476Y77271714D01*
X88271523Y77414571D01*
X88390571Y77700285D01*
X88390571Y78557428D01*
X88271523Y78843142D01*
X88152476Y78986000D01*
X87914380Y79128857D01*
X87438190Y79128857D01*
X87200095Y78986000D01*
X85057238Y77271714D02*
X85295333Y77128857D01*
X85771523Y77128857D01*
X86009619Y77271714D01*
X86128666Y77557428D01*
X86128666Y78700285D01*
X86009619Y78986000D01*
X85771523Y79128857D01*
X85295333Y79128857D01*
X85057238Y78986000D01*
X84938190Y78700285D01*
X84938190Y78414571D01*
X86128666Y78128857D01*
X83985809Y77986000D02*
X82795333Y77986000D01*
X84223904Y77128857D02*
X83390571Y80128857D01*
X82557238Y77128857D01*
X81366761Y77128857D02*
X81604857Y77271714D01*
X81723904Y77557428D01*
X81723904Y80128857D01*
X79342952Y77128857D02*
X79342952Y78700285D01*
X79462000Y78986000D01*
X79700095Y79128857D01*
X80176285Y79128857D01*
X80414380Y78986000D01*
X79342952Y77271714D02*
X79581047Y77128857D01*
X80176285Y77128857D01*
X80414380Y77271714D01*
X80533428Y77557428D01*
X80533428Y77843142D01*
X80414380Y78128857D01*
X80176285Y78271714D01*
X79581047Y78271714D01*
X79342952Y78414571D01*
X78152476Y77128857D02*
X78152476Y79128857D01*
X78152476Y78557428D02*
X78033428Y78843142D01*
X77914380Y78986000D01*
X77676285Y79128857D01*
X77438190Y79128857D01*
X76604857Y77128857D02*
X76604857Y79128857D01*
X76604857Y78843142D02*
X76485809Y78986000D01*
X76247714Y79128857D01*
X75890571Y79128857D01*
X75652476Y78986000D01*
X75533428Y78700285D01*
X75533428Y77128857D01*
X75533428Y78700285D02*
X75414380Y78986000D01*
X75176285Y79128857D01*
X74819142Y79128857D01*
X74581047Y78986000D01*
X74462000Y78700285D01*
X74462000Y77128857D01*
X67795333Y79128857D02*
X67200095Y77128857D01*
X66604857Y79128857D01*
X64342952Y77128857D02*
X65771523Y77128857D01*
X65057238Y77128857D02*
X65057238Y80128857D01*
X65295333Y79700285D01*
X65533428Y79414571D01*
X65771523Y79271714D01*
X63271523Y77414571D02*
X63152476Y77271714D01*
X63271523Y77128857D01*
X63390571Y77271714D01*
X63271523Y77414571D01*
X63271523Y77128857D01*
X61604857Y80128857D02*
X61366761Y80128857D01*
X61128666Y79986000D01*
X61009619Y79843142D01*
X60890571Y79557428D01*
X60771523Y78986000D01*
X60771523Y78271714D01*
X60890571Y77700285D01*
X61009619Y77414571D01*
X61128666Y77271714D01*
X61366761Y77128857D01*
X61604857Y77128857D01*
X61842952Y77271714D01*
X61962000Y77414571D01*
X62081047Y77700285D01*
X62200095Y78271714D01*
X62200095Y78986000D01*
X62081047Y79557428D01*
X61962000Y79843142D01*
X61842952Y79986000D01*
X61604857Y80128857D01*
M02*
