M48
; DRILL file {KiCad (5.1.6)-1} date 01/22/22 13:17:52
; FORMAT={-:-/ absolute / metric / decimal}
; #@! TF.CreationDate,2022-01-22T13:17:52-05:00
; #@! TF.GenerationSoftware,Kicad,Pcbnew,(5.1.6)-1
FMAT,2
METRIC
T1C0.800
T2C1.000
T3C3.000
%
G90
G05
T1
X52.07Y6.35
X44.45Y6.35
X40.64Y6.35
X36.83Y6.35
X60.96Y7.62
X66.04Y7.62
X68.58Y7.62
X71.12Y7.62
X73.66Y7.62
X76.2Y7.62
X78.74Y7.62
X81.28Y7.62
X83.82Y7.62
X86.36Y7.62
X88.9Y7.62
X40.64Y8.89
X53.34Y10.16
X55.88Y10.16
X58.42Y10.16
X60.96Y10.16
X63.5Y10.16
X66.04Y10.16
X68.58Y10.16
X71.12Y10.16
X73.66Y10.16
X76.2Y10.16
X78.74Y10.16
X81.28Y10.16
X83.82Y10.16
X86.36Y10.16
X88.9Y10.16
X40.64Y11.43
X49.53Y12.7
X53.34Y12.7
X91.44Y12.7
X93.98Y12.7
X96.52Y12.7
X101.6Y12.7
X36.83Y13.97
X71.12Y15.24
X91.44Y15.24
X96.52Y15.24
X96.52Y17.78
X73.66Y19.05
X101.6Y20.32
X96.52Y20.32
X88.9Y20.32
X76.2Y21.59
X96.52Y22.86
X88.9Y22.86
X25.4Y22.86
X22.86Y22.86
X20.32Y22.86
X32.69Y25.375
X96.52Y25.4
X22.86Y25.4
X38.1Y26.67
X102.87Y27.94
X40.3Y30.1
X102.87Y30.48
X99.06Y30.48
X93.98Y30.48
X27.94Y30.48
X25.4Y30.48
X17.78Y30.48
X17.78Y33.02
X25.4Y33.02
X30.48Y33.02
X93.98Y33.02
X99.06Y33.02
X102.87Y33.02
X93.98Y35.56
X88.9Y35.56
X86.36Y35.56
X83.82Y35.56
X81.28Y35.56
X78.74Y35.56
X76.2Y35.56
X73.66Y35.56
X71.12Y35.56
X68.58Y35.56
X66.04Y35.56
X63.5Y35.56
X60.96Y35.56
X58.42Y35.56
X55.88Y35.56
X53.34Y35.56
X33.02Y35.56
X25.4Y35.56
X17.78Y35.56
X101.6Y36.83
X104.14Y36.83
X86.36Y38.1
X83.82Y38.1
X81.28Y38.1
X78.74Y38.1
X71.12Y38.1
X68.58Y38.1
X66.04Y38.1
X63.5Y38.1
X25.4Y38.1
X17.78Y38.1
X101.6Y39.37
X104.14Y39.37
X33.02Y40.64
X30.48Y40.64
X27.94Y40.64
X27.94Y40.64
X11.43Y40.64
X8.89Y40.64
X44.57Y40.76
X104.14Y41.91
X101.6Y41.91
X27.94Y43.18
X30.48Y43.18
X33.02Y43.18
X35.56Y43.18
X104.14Y44.45
X101.6Y44.45
X13.97Y45.72
X22.86Y45.72
X42.58Y45.72
X104.14Y46.99
X101.6Y46.99
X101.6Y49.53
X104.14Y49.53
X35.56Y50.8
X33.02Y50.8
X30.48Y50.8
X27.94Y50.8
X54.61Y53.34
X72.39Y53.34
X90.17Y53.34
X40.4Y56.2
X38.1Y56.2
X42.7Y56.3
X22.86Y60.96
X13.97Y60.96
X7.62Y60.96
X7.62Y63.5
X49.5Y66.04
X26.67Y66.04
X20.32Y66.04
X12.7Y66.04
X3.81Y66.04
X12.7Y69.85
X20.32Y69.85
X7.62Y71.12
X3.81Y71.12
X39.47Y74.26
X39.47Y76.8
X20.32Y78.74
X27.94Y78.74
X44.45Y78.74
X25.4Y78.83
X22.77Y78.83
X37.017Y79.34
X39.47Y79.34
X44.45Y81.28
X39.47Y81.89
X25.4Y85.09
X22.86Y85.09
X20.32Y85.09
X13.97Y85.09
T2
X16.28Y4.16
X28.53Y4.21
X5.08Y10.16
X30.48Y10.16
X5.08Y12.7
X5.08Y15.24
X28.53Y16.21
X16.33Y16.21
X5.08Y17.78
X5.08Y20.32
X5.08Y22.86
X5.08Y25.4
X5.08Y27.94
X5.08Y30.48
X5.08Y33.02
X90.17Y45.72
X85.09Y45.72
X72.39Y45.72
X67.31Y45.72
X54.61Y45.72
X49.53Y45.72
X4.58Y48.84
X90.17Y50.8
X85.09Y50.8
X72.39Y50.8
X67.31Y50.8
X54.61Y50.8
X49.53Y50.8
X4.58Y53.34
X4.58Y57.84
X7.62Y77.47
X10.16Y77.47
X12.7Y77.47
T3
X107.95Y3.81
X3.81Y3.81
X33.528Y55.88
X107.442Y55.88
X3.8Y85.1
X107.442Y85.852
X33.5Y85.9
T0
M30
